<mxfile host="app.diagrams.net" modified="2021-11-25T07:32:15.087Z" agent="5.0 (Windows NT 10.0; Win64; x64) AppleWebKit/537.36 (KHTML, like Gecko) Chrome/96.0.4664.45 Safari/537.36" etag="bglIVIe39g3ez5J4sWFT" version="15.8.2" type="github">
  <diagram id="aM8EVJBHEqNR1bKHujq1" name="Page-1">
    <mxGraphModel dx="1422" dy="761" grid="0" gridSize="10" guides="1" tooltips="1" connect="1" arrows="1" fold="1" page="1" pageScale="1" pageWidth="1169" pageHeight="827" math="0" shadow="0">
      <root>
        <mxCell id="0" />
        <mxCell id="1" parent="0" />
        <mxCell id="zMP53VQftBSQvkBFLaxG-1" value="" style="rounded=1;whiteSpace=wrap;html=1;" vertex="1" parent="1">
          <mxGeometry x="495" y="53" width="120" height="60" as="geometry" />
        </mxCell>
        <mxCell id="zMP53VQftBSQvkBFLaxG-2" value="" style="rounded=1;whiteSpace=wrap;html=1;" vertex="1" parent="1">
          <mxGeometry x="223" y="176" width="120" height="60" as="geometry" />
        </mxCell>
        <mxCell id="zMP53VQftBSQvkBFLaxG-3" value="" style="rounded=1;whiteSpace=wrap;html=1;" vertex="1" parent="1">
          <mxGeometry x="495" y="176" width="120" height="60" as="geometry" />
        </mxCell>
      </root>
    </mxGraphModel>
  </diagram>
</mxfile>
